<svg id="header" xmlns="http://www.w3.org/2000/svg" viewBox="0 0 24.99 45.8"><defs><style>.cls-1{fill:#ff0820;}</style></defs><title>Landing_subtitlehuman</title><circle class="cls-1" cx="17.76" cy="4.91" r="4.91"/><path class="cls-1" d="M829.36,180.8l-1.77,7.44a2.67,2.67,0,0,0,2,3.2l5.15,1.22a2.67,2.67,0,0,0,3.2-2l2.15-9.06c0.34-1.42-.55-2.59-1.92-3.57l-5.08-2.56-1.12-1.81,4.85-1.74a0.41,0.41,0,0,0,.25-0.52l-1.38-2.94a0.41,0.41,0,0,0-.52-0.25l-8.36,2.88a2.12,2.12,0,0,0-.71,1.93l3.46,7.05Z" transform="translate(-819.3 -167.21)"/><path class="cls-1" d="M825.82,200.26l5-3.86,0.19,0.8s0.27,3.79.5,5a6.38,6.38,0,0,0,1.39,2.73l7,7.51a1.73,1.73,0,0,0,2.44.08l1.4-1.31a1.73,1.73,0,0,0,.08-2.44L838.44,203a5.32,5.32,0,0,1-1.64-1.76c-0.43-1.65,0-5.79,0-5.79,0-1.2-.84-2-2.4-2.38l-3.45-.77c-1.66-.41-3.25-0.7-4.24.07l-4.08,3.76-0.57.49c-1.32,1.1-2.28,2.24-2.34,3.51L819.3,209a2.29,2.29,0,0,0,2.21,2.34h0.44a2.29,2.29,0,0,0,2.34-2.21s-0.24-6.38.83-8Z" transform="translate(-819.3 -167.21)"/></svg>