<svg xmlns="http://www.w3.org/2000/svg" viewBox="0 0 80 36"><title>LandingArtboard 20 copy</title><g id="Layer_1" data-name="Layer 1"><path d="M16.38,15.47a5.26,5.26,0,0,1-1.58,4.11A6.49,6.49,0,0,1,10.3,21H8.69v6.41H6.17V10.29h4.44a6.24,6.24,0,0,1,4.33,1.31A5,5,0,0,1,16.38,15.47ZM8.69,18.65H10a4.43,4.43,0,0,0,2.85-.75,2.87,2.87,0,0,0,.91-2.34,2.81,2.81,0,0,0-.81-2.2,3.72,3.72,0,0,0-2.53-.73H8.69Z" style="fill:#1a1a1a"/><path d="M16.4,25.95a1.93,1.93,0,0,1,.4-1.31A1.46,1.46,0,0,1,18,24.18a1.45,1.45,0,0,1,1.17.47,2,2,0,0,1,.4,1.29,2,2,0,0,1-.41,1.32,1.64,1.64,0,0,1-2.32,0A2,2,0,0,1,16.4,25.95Z" style="fill:#1a1a1a"/><path d="M25.63,20.57v6.84H23.11V10.29h4.35a6.63,6.63,0,0,1,4.42,1.24,4.69,4.69,0,0,1,1.43,3.75,4.67,4.67,0,0,1-3,4.56l4.35,7.58H31.81l-3.69-6.84Zm0-2.32h1.75a3.7,3.7,0,0,0,2.55-.73,2.78,2.78,0,0,0,.79-2.16,2.42,2.42,0,0,0-.85-2.08,4.31,4.31,0,0,0-2.57-.63H25.63Z" style="fill:#1a1a1a"/><path d="M36.84,25.95a1.93,1.93,0,0,1,.4-1.31,1.69,1.69,0,0,1,2.33,0,2,2,0,0,1,.4,1.29,2,2,0,0,1-.41,1.32,1.64,1.64,0,0,1-2.32,0A2,2,0,0,1,36.84,25.95Z" style="fill:#1a1a1a"/><path d="M52.28,27.41H43.56V10.29h8.72v2.37h-6.2v4.66h5.81v2.34H46.08V25h6.2Z" style="fill:#1a1a1a"/><path d="M55.23,25.95a1.93,1.93,0,0,1,.4-1.31,1.69,1.69,0,0,1,2.33,0,2,2,0,0,1,.4,1.29A2,2,0,0,1,58,27.27a1.64,1.64,0,0,1-2.32,0A2,2,0,0,1,55.23,25.95Z" style="fill:#1a1a1a"/><path d="M72.15,15.47a5.26,5.26,0,0,1-1.58,4.11A6.49,6.49,0,0,1,66.07,21h-1.6v6.41H61.95V10.29h4.44a6.24,6.24,0,0,1,4.33,1.31A5,5,0,0,1,72.15,15.47Zm-7.68,3.19h1.34a4.43,4.43,0,0,0,2.85-.75,2.87,2.87,0,0,0,.91-2.34,2.81,2.81,0,0,0-.81-2.2,3.72,3.72,0,0,0-2.53-.73H64.47Z" style="fill:#1a1a1a"/><path d="M72.17,25.95a1.93,1.93,0,0,1,.4-1.31,1.69,1.69,0,0,1,2.33,0,2,2,0,0,1,.4,1.29,2,2,0,0,1-.41,1.32,1.64,1.64,0,0,1-2.32,0A2,2,0,0,1,72.17,25.95Z" style="fill:#1a1a1a"/></g></svg>