<?xml version="1.0" encoding="utf-8"?>
<!-- Generator: Adobe Illustrator 21.0.0, SVG Export Plug-In . SVG Version: 6.00 Build 0)  -->
<svg version="1.1" xmlns="http://www.w3.org/2000/svg" xmlns:xlink="http://www.w3.org/1999/xlink" x="0px" y="0px"
	 viewBox="0 0 80 36" style="enable-background:new 0 0 80 36;" xml:space="preserve">
<style type="text/css">
	.st0{fill:#FFFFFF;}
	.st1{opacity:0.3;}
	.st2{opacity:0.59;clip-path:url(#SVGID_2_);}
	.st3{fill:#C9BCB5;}
	.st4{fill:#333333;}
	.st5{opacity:0.76;fill:#0F0B07;}
	.st6{opacity:0.75;}
	.st7{opacity:0.8;}
	.st8{fill:none;stroke:#000000;stroke-width:3.3947;stroke-linecap:round;stroke-miterlimit:10;}
	.st9{opacity:0.8;fill:#FFFFFF;}
	.st10{fill:none;stroke:#3F3F3F;stroke-width:3.3947;stroke-linecap:round;stroke-miterlimit:10;}
	.st11{opacity:0.45;fill:url(#SVGID_7_);}
	.st12{opacity:0.9;fill:url(#SVGID_10_);}
	.st13{fill:#1A1A1A;}
	.st14{fill:#FB2F3A;}
	.st15{fill:#FF0820;}
	.st16{fill:#24CEEA;}
	.st17{fill:#636362;}
	.st18{opacity:0.65;fill:#FFFFFF;}
	.st19{fill:none;stroke:#000000;stroke-miterlimit:10;}
	.st20{fill:#CCCCCC;}
	.st21{fill:#FFD003;}
	.st22{fill:#212120;}
	.st23{fill:none;stroke:#000000;stroke-width:0.3779;stroke-miterlimit:10;}
	.st24{fill:none;stroke:#000000;stroke-width:0.3779;stroke-linecap:round;stroke-linejoin:round;stroke-miterlimit:10;}
	.st25{fill:#006DD0;}
	.st26{fill:#FFFFFF;stroke:#068DF2;stroke-width:1.2949;stroke-miterlimit:10;}
	.st27{opacity:0.9;fill:url(#SVGID_11_);}
	.st28{fill:#1E1613;}
	.st29{fill:#778B91;}
	.st30{fill:#66B8E6;}
	.st31{fill:url(#XMLID_58_);}
	.st32{fill:url(#XMLID_63_);}
	.st33{fill:url(#XMLID_64_);}
	.st34{fill:url(#XMLID_73_);}
	.st35{fill:url(#XMLID_75_);}
	.st36{fill:url(#XMLID_76_);}
	.st37{clip-path:url(#SVGID_15_);}
	.st38{fill:url(#XMLID_78_);}
	.st39{fill:url(#XMLID_79_);}
	.st40{fill:url(#XMLID_450_);}
	.st41{fill:url(#XMLID_633_);}
	.st42{fill:url(#XMLID_635_);}
	.st43{fill:url(#XMLID_637_);}
	.st44{fill:url(#XMLID_638_);}
	.st45{fill:url(#XMLID_642_);}
	.st46{fill:#7A5649;}
	.st47{fill:#44271F;}
	.st48{fill:#A1CC60;}
	.st49{fill:#7EB445;}
	.st50{fill:#517527;}
	.st51{fill:#6CD34F;}
	.st52{fill:#DDDDDD;}
	.st53{fill:#AAAAAA;}
	.st54{opacity:0.6;fill:#FFFFFF;}
	.st55{opacity:0.26;fill:#DDDDDD;}
	.st56{fill:#E31836;}
	.st57{clip-path:url(#XMLID_644_);fill:#1A1A1A;}
	.st58{clip-path:url(#XMLID_644_);}
	.st59{opacity:0.2;}
	.st60{opacity:0.85;}
	.st61{fill:#0F0B07;}
	.st62{fill:none;stroke:#000000;stroke-width:0.75;stroke-miterlimit:10;}
	.st63{fill:none;stroke:#000000;stroke-width:0.3294;stroke-miterlimit:10;}
	.st64{fill:none;stroke:#000000;stroke-width:0.3294;stroke-linecap:round;stroke-linejoin:round;stroke-miterlimit:10;}
	.st65{fill:#FFFFFF;stroke:#068DF2;stroke-width:1.1289;stroke-miterlimit:10;}
	.st66{fill:#F20C32;}
	.st67{fill:url(#XMLID_645_);}
	.st68{fill:url(#XMLID_648_);}
	.st69{fill:url(#XMLID_649_);}
	.st70{fill:url(#XMLID_650_);}
	.st71{fill:url(#XMLID_651_);}
	.st72{fill:url(#XMLID_652_);}
	.st73{clip-path:url(#SVGID_21_);}
	.st74{fill:url(#XMLID_653_);}
	.st75{fill:url(#XMLID_654_);}
	.st76{fill:url(#XMLID_655_);}
	.st77{fill:url(#XMLID_656_);}
	.st78{fill:url(#XMLID_657_);}
	.st79{fill:url(#XMLID_658_);}
	.st80{fill:url(#XMLID_659_);}
	.st81{fill:url(#XMLID_660_);}
	.st82{fill:url(#XMLID_661_);}
	.st83{fill:url(#XMLID_662_);}
	.st84{fill:url(#XMLID_663_);}
	.st85{fill:url(#XMLID_664_);}
	.st86{fill:url(#XMLID_665_);}
	.st87{fill:url(#XMLID_666_);}
	.st88{clip-path:url(#SVGID_27_);}
	.st89{fill:url(#XMLID_667_);}
	.st90{fill:url(#XMLID_668_);}
	.st91{fill:url(#XMLID_669_);}
	.st92{fill:url(#XMLID_670_);}
	.st93{fill:url(#XMLID_671_);}
	.st94{fill:url(#XMLID_672_);}
	.st95{fill:url(#XMLID_679_);}
	.st96{fill:url(#XMLID_680_);}
	.st97{fill:#808080;}
	.st98{opacity:0.4;}
	.st99{fill:#E6E6E6;}
	.st100{fill:#4D4D4D;}
	.st101{fill:none;stroke:#666666;stroke-miterlimit:10;}
	.st102{fill:url(#SVGID_30_);}
	.st103{fill:url(#SVGID_31_);}
	.st104{fill:url(#SVGID_32_);}
	.st105{fill:url(#SVGID_33_);}
	.st106{fill:url(#SVGID_34_);}
	.st107{fill:url(#SVGID_35_);}
	.st108{fill:url(#SVGID_36_);}
	.st109{fill:url(#SVGID_37_);}
	.st110{fill:url(#SVGID_38_);}
	.st111{fill:url(#SVGID_39_);}
	.st112{fill:url(#SVGID_40_);}
	.st113{fill:url(#SVGID_41_);}
	.st114{fill:url(#SVGID_42_);}
	.st115{fill:url(#SVGID_43_);}
	.st116{fill:url(#SVGID_44_);}
	.st117{fill:url(#SVGID_45_);}
	.st118{fill:url(#SVGID_46_);}
	.st119{fill:url(#SVGID_47_);}
	.st120{fill:url(#SVGID_48_);}
	.st121{fill:url(#SVGID_49_);}
	.st122{fill:url(#SVGID_50_);}
	.st123{fill:url(#SVGID_51_);}
	.st124{fill:url(#SVGID_52_);}
	.st125{fill:url(#SVGID_53_);}
	.st126{fill:url(#SVGID_54_);}
	.st127{fill:url(#SVGID_55_);}
	.st128{fill:url(#SVGID_56_);}
	.st129{fill:url(#SVGID_57_);}
	.st130{fill:url(#SVGID_58_);}
	.st131{fill:url(#SVGID_59_);}
	.st132{fill:url(#SVGID_60_);}
	.st133{fill:url(#SVGID_61_);}
	.st134{fill:url(#SVGID_62_);}
	.st135{fill:url(#SVGID_63_);}
	.st136{fill:url(#SVGID_64_);}
	.st137{fill:url(#SVGID_65_);}
	.st138{fill:url(#SVGID_66_);}
	.st139{fill:url(#SVGID_67_);}
	.st140{fill:url(#SVGID_68_);}
	.st141{fill:url(#SVGID_69_);}
	.st142{fill:url(#SVGID_70_);}
	.st143{fill:url(#SVGID_71_);}
	.st144{fill:url(#SVGID_72_);}
	.st145{fill:url(#SVGID_73_);}
	.st146{fill:url(#SVGID_74_);}
	.st147{fill:url(#SVGID_75_);}
	.st148{fill:url(#SVGID_76_);}
	.st149{fill:url(#SVGID_77_);}
	.st150{fill:url(#SVGID_78_);}
	.st151{fill:url(#SVGID_79_);}
	.st152{fill:url(#SVGID_80_);}
	.st153{fill:url(#SVGID_81_);}
	.st154{fill:url(#SVGID_82_);}
	.st155{fill:url(#SVGID_83_);}
	.st156{fill:url(#SVGID_84_);}
	.st157{fill:url(#SVGID_85_);}
	.st158{fill:url(#SVGID_86_);}
	.st159{fill:url(#SVGID_87_);}
	.st160{fill:url(#SVGID_88_);}
	.st161{fill:url(#SVGID_89_);}
	.st162{fill:url(#SVGID_90_);}
	.st163{fill:url(#SVGID_91_);}
	.st164{fill:url(#SVGID_92_);stroke:#EDB400;stroke-width:1.1022;stroke-miterlimit:10;stroke-opacity:0.78;}
	.st165{opacity:0.7;fill:url(#SVGID_93_);}
	.st166{fill:#FFFFFF;stroke:#000000;stroke-width:2.2045;stroke-miterlimit:10;}
	.st167{fill:url(#SVGID_94_);stroke:#EDB400;stroke-width:1.1022;stroke-miterlimit:10;stroke-opacity:0.78;}
	.st168{opacity:0.7;fill:url(#SVGID_95_);}
	.st169{fill:url(#SVGID_96_);stroke:#EDB400;stroke-width:1.1022;stroke-miterlimit:10;stroke-opacity:0.78;}
	.st170{opacity:0.7;fill:url(#SVGID_97_);}
	.st171{fill:url(#SVGID_98_);}
	.st172{fill:url(#SVGID_99_);}
	.st173{fill:url(#SVGID_100_);}
	.st174{fill:url(#SVGID_101_);}
	.st175{fill:url(#SVGID_102_);}
	.st176{fill:url(#SVGID_103_);}
	.st177{fill:url(#SVGID_104_);}
	.st178{fill:url(#SVGID_105_);}
	.st179{fill:url(#SVGID_106_);}
	.st180{fill:url(#SVGID_107_);}
	.st181{fill:url(#SVGID_108_);}
	.st182{fill:url(#SVGID_109_);}
	.st183{fill:url(#SVGID_110_);}
	.st184{fill:url(#SVGID_111_);}
	.st185{fill:url(#SVGID_112_);}
	.st186{fill:url(#SVGID_113_);}
	.st187{fill:url(#SVGID_114_);}
	.st188{fill:url(#SVGID_115_);}
	.st189{fill:url(#SVGID_116_);}
	.st190{fill:url(#SVGID_117_);}
	.st191{fill:url(#SVGID_118_);}
	.st192{fill:url(#SVGID_119_);}
	.st193{fill:url(#SVGID_120_);}
	.st194{fill:url(#SVGID_121_);}
	.st195{fill:url(#SVGID_122_);}
	.st196{fill:url(#SVGID_123_);}
	.st197{fill:url(#SVGID_124_);}
	.st198{fill:url(#SVGID_125_);}
	.st199{fill:url(#SVGID_126_);}
	.st200{fill:url(#SVGID_127_);}
	.st201{fill:url(#SVGID_128_);}
	.st202{fill:url(#SVGID_129_);}
	.st203{fill:url(#SVGID_130_);}
	.st204{fill:url(#SVGID_131_);}
	.st205{fill:url(#SVGID_132_);}
	.st206{fill:url(#SVGID_133_);}
	.st207{fill:url(#SVGID_134_);}
	.st208{fill:url(#SVGID_135_);}
	.st209{fill:url(#SVGID_136_);}
	.st210{fill:url(#SVGID_137_);}
	.st211{fill:url(#SVGID_138_);}
	.st212{fill:url(#SVGID_139_);}
	.st213{fill:url(#SVGID_140_);}
	.st214{fill:url(#SVGID_141_);}
	.st215{fill:url(#SVGID_142_);}
	.st216{fill:url(#SVGID_143_);}
	.st217{fill:url(#SVGID_144_);}
	.st218{fill:url(#SVGID_145_);}
	.st219{fill:url(#SVGID_146_);}
	.st220{fill:url(#SVGID_147_);}
	.st221{fill:url(#SVGID_148_);}
	.st222{fill:url(#SVGID_149_);}
	.st223{fill:url(#SVGID_150_);}
	.st224{fill:url(#SVGID_151_);}
	.st225{fill:url(#SVGID_152_);}
	.st226{fill:url(#SVGID_153_);}
	.st227{fill:url(#SVGID_154_);}
	.st228{fill:url(#SVGID_155_);}
	.st229{fill:url(#SVGID_156_);}
	.st230{fill:url(#SVGID_157_);}
	.st231{fill:url(#SVGID_158_);}
	.st232{fill:url(#SVGID_159_);}
	.st233{fill:url(#XMLID_681_);}
	.st234{fill:url(#SVGID_160_);}
	.st235{fill:#EDE2D6;}
	.st236{fill:url(#SVGID_161_);}
	.st237{opacity:0.2;clip-path:url(#SVGID_163_);}
	.st238{fill:#EADB9D;}
</style>
<g id="Layer_2">
</g>
<g id="Layer_1">
	<g>
		<g>
			<path class="st13" d="M16.4,15.5c0,1.8-0.5,3.2-1.6,4.1c-1.1,1-2.6,1.4-4.5,1.4H8.7v6.4H6.2V10.3h4.4c1.9,0,3.4,0.4,4.3,1.3
				C15.9,12.5,16.4,13.8,16.4,15.5z M8.7,18.7H10c1.3,0,2.2-0.2,2.8-0.7c0.6-0.5,0.9-1.3,0.9-2.3c0-1-0.3-1.7-0.8-2.2
				c-0.5-0.5-1.4-0.7-2.5-0.7H8.7V18.7z"/>
			<path class="st13" d="M16.4,25.9c0-0.6,0.1-1,0.4-1.3c0.3-0.3,0.7-0.5,1.2-0.5c0.5,0,0.9,0.2,1.2,0.5c0.3,0.3,0.4,0.7,0.4,1.3
				c0,0.6-0.1,1-0.4,1.3c-0.3,0.3-0.7,0.5-1.2,0.5s-0.9-0.2-1.2-0.5C16.5,27,16.4,26.5,16.4,25.9z"/>
			<path class="st13" d="M25.6,20.6v6.8h-2.5V10.3h4.4c2,0,3.5,0.4,4.4,1.2c1,0.8,1.4,2.1,1.4,3.7c0,2.1-1,3.7-3,4.6l4.4,7.6h-2.9
				l-3.7-6.8H25.6z M25.6,18.3h1.8c1.2,0,2-0.2,2.6-0.7s0.8-1.2,0.8-2.2c0-1-0.3-1.7-0.9-2.1c-0.6-0.4-1.4-0.6-2.6-0.6h-1.7V18.3z"
				/>
			<path class="st13" d="M36.8,25.9c0-0.6,0.1-1,0.4-1.3c0.3-0.3,0.7-0.5,1.2-0.5c0.5,0,0.9,0.2,1.2,0.5c0.3,0.3,0.4,0.7,0.4,1.3
				c0,0.6-0.1,1-0.4,1.3c-0.3,0.3-0.7,0.5-1.2,0.5s-0.9-0.2-1.2-0.5C37,27,36.8,26.5,36.8,25.9z"/>
			<path class="st13" d="M52.3,27.4h-8.7V10.3h8.7v2.4h-6.2v4.7h5.8v2.3h-5.8V25h6.2V27.4z"/>
			<path class="st13" d="M55.2,25.9c0-0.6,0.1-1,0.4-1.3c0.3-0.3,0.7-0.5,1.2-0.5c0.5,0,0.9,0.2,1.2,0.5c0.3,0.3,0.4,0.7,0.4,1.3
				c0,0.6-0.1,1-0.4,1.3c-0.3,0.3-0.7,0.5-1.2,0.5s-0.9-0.2-1.2-0.5C55.4,27,55.2,26.5,55.2,25.9z"/>
			<path class="st13" d="M72.2,15.5c0,1.8-0.5,3.2-1.6,4.1c-1.1,1-2.6,1.4-4.5,1.4h-1.6v6.4h-2.5V10.3h4.4c1.9,0,3.4,0.4,4.3,1.3
				C71.7,12.5,72.2,13.8,72.2,15.5z M64.5,18.7h1.3c1.3,0,2.2-0.2,2.8-0.7c0.6-0.5,0.9-1.3,0.9-2.3c0-1-0.3-1.7-0.8-2.2
				c-0.5-0.5-1.4-0.7-2.5-0.7h-1.8V18.7z"/>
			<path class="st13" d="M72.2,25.9c0-0.6,0.1-1,0.4-1.3c0.3-0.3,0.7-0.5,1.2-0.5c0.5,0,0.9,0.2,1.2,0.5c0.3,0.3,0.4,0.7,0.4,1.3
				c0,0.6-0.1,1-0.4,1.3c-0.3,0.3-0.7,0.5-1.2,0.5s-0.9-0.2-1.2-0.5C72.3,27,72.2,26.5,72.2,25.9z"/>
		</g>
	</g>
</g>
<g id="bcg">
</g>
<g id="Layer_3">
</g>
<g id="Layer_5">
</g>
<g id="Layer_4">
</g>
<g id="Layer_6">
</g>
</svg>
