<svg id="Layer_4" data-name="Layer 4" xmlns="http://www.w3.org/2000/svg" viewBox="0 0 80 80"><defs><style>.cls-1,.cls-5,.cls-6{fill:none;stroke:#000;}.cls-1,.cls-5{stroke-miterlimit:10;}.cls-1{stroke-width:0.75px;}.cls-2{fill:#ccc;}.cls-3{fill:#ffd003;}.cls-4{fill:#212120;}.cls-5,.cls-6{stroke-width:0.33px;}.cls-6{stroke-linecap:round;stroke-linejoin:round;}</style></defs><title>PREP</title><g id="_Group_" data-name="&lt;Group&gt;"><rect id="_Path_" data-name="&lt;Path&gt;" x="34" y="26" width="19" height="2" rx="0.37" ry="0.37"/><rect id="_Path_2" data-name="&lt;Path&gt;" x="34" y="34" width="19" height="2" rx="0.37" ry="0.37"/><rect id="_Path_3" data-name="&lt;Path&gt;" x="34" y="42" width="19" height="2" rx="0.37" ry="0.37"/><rect id="_Rectangle_" data-name="&lt;Rectangle&gt;" class="cls-1" x="19.06" y="16.5" width="37" height="47" rx="2" ry="2"/><g id="_Group_2" data-name="&lt;Group&gt;"><polygon class="cls-2" points="40 48.59 35 51.93 35 55.58 35 56.36 40 59.7 40 48.59"/><polygon points="35 51.93 35 51.92 32.11 54.15 35 56.37 35 56.36 32.12 54.15 35 51.93"/><polygon points="35 51.93 32.12 54.15 35 56.36 35 55.58 35 51.93"/><rect id="_Rectangle_2" data-name="&lt;Rectangle&gt;" class="cls-3" x="39.07" y="48.59" width="25.7" height="10.98"/><rect id="_Rectangle_3" data-name="&lt;Rectangle&gt;" class="cls-4" x="40" y="52" width="25" height="1"/><rect id="_Rectangle_4" data-name="&lt;Rectangle&gt;" class="cls-4" x="40" y="56" width="25" height="1"/></g><rect id="_Rectangle_5" data-name="&lt;Rectangle&gt;" class="cls-5" x="26.22" y="25.63" width="4.61" height="4.61" rx="0.54" ry="0.54"/><rect id="_Rectangle_6" data-name="&lt;Rectangle&gt;" class="cls-5" x="26.22" y="32.22" width="4.61" height="4.61" rx="0.54" ry="0.54"/><polyline id="_Path_4" data-name="&lt;Path&gt;" class="cls-6" points="27.2 27.5 28.57 29.17 31.06 23.97"/><polyline id="_Path_5" data-name="&lt;Path&gt;" class="cls-6" points="27.2 34.21 28.57 35.89 31.06 30.69"/><rect id="_Rectangle_7" data-name="&lt;Rectangle&gt;" class="cls-5" x="26.22" y="39.47" width="4.61" height="4.61" rx="0.54" ry="0.54"/><polyline id="_Path_6" data-name="&lt;Path&gt;" class="cls-6" points="27.2 41.46 28.57 43.13 31.06 37.94"/></g></svg>