<svg id="Layer_6" data-name="Layer 6" xmlns="http://www.w3.org/2000/svg" viewBox="0 0 80 80"><defs><style>.cls-1{fill:#24ceea;}.cls-2{fill:#fff;}</style></defs><title>PREP</title><g id="_Group_" data-name="&lt;Group&gt;"><path id="_Path_" data-name="&lt;Path&gt;" class="cls-1" d="M15.65,39.48a1.78,1.78,0,0,0,1,.13H36.17c1.53,0,1.94.41,1.95,1.91,0,0.72,0,1.44,0,2.17a0.57,0.57,0,0,0,.67.7q2,0,4,0a0.57,0.57,0,0,0,.67-0.7c0-.78,0-1.55,0-2.33a1.49,1.49,0,0,1,1.77-1.75H65a1.36,1.36,0,0,0,.81-0.1,0.9,0.9,0,0,0-.47-0.64q-6.31-6.05-12.63-12.1a0.7,0.7,0,0,0-1.2,0c-0.79.82-1.64,1.58-2.47,2.35a1.47,1.47,0,1,1-2-2.08q1.89-1.82,3.81-3.6c1-.91,1.62-0.9,2.59,0L67.62,37c1,0.92,1.92,1.85,2.89,2.76a1.87,1.87,0,0,1,.64,1.47c0,4.89,0,9.77,0,14.66,0,1.49-.4,1.89-1.86,1.89H45.38c-1.53,0-1.93-.41-1.93-1.92,0-2.55,0-5.11,0-7.66a0.73,0.73,0,0,0-.89-0.91c-1.19,0-2.39,0-3.58,0-0.71,0-.89.26-0.88,0.92,0,2.58,0,5.16,0,7.75,0,1.38-.46,1.83-1.86,1.83H12.45c-1.69,0-2-.35-2-2.07,0-4.83,0-9.66,0-14.49a2.07,2.07,0,0,1,.79-1.57l13.61-13c1.12-1.07,2.24-2.16,3.37-3.22a1.53,1.53,0,0,1,2.46,0Q32.56,25.2,34.49,27a1.47,1.47,0,1,1-2,2.08q-1.32-1.21-2.6-2.46c-0.3-.29-0.52-0.41-0.89-0.06q-6.57,6.32-13.17,12.62A1.62,1.62,0,0,0,15.65,39.48Z"/><path id="_Path_2" data-name="&lt;Path&gt;" class="cls-2" d="M24,55.09c-3,0-6.68,0-10.09,0-0.78,0-.92-0.26-0.91-1,0-3.61.06-7.21,0-10.82a0.83,0.83,0,0,1,1-1c6.8,0,13.6,0,20.4,0,0.33,0,.82-0.18,1,0.27a3,3,0,0,1,0,1.64,0.46,0.46,0,0,1-.51.2c-0.3,0-.61,0-0.91,0a1.39,1.39,0,0,0-1.32,1.35,1.42,1.42,0,0,0,1.28,1.48c1.54,0.2,1.54.2,1.55,1.74,0,1.75,0,3.5,0,5.24a0.79,0.79,0,0,1-1,.86c-3.44,0-6.47,0-10.47,0h0Z"/><g id="_Group_2" data-name="&lt;Group&gt;"><path id="_Compound_Path_" data-name="&lt;Compound Path&gt;" d="M33,49.6A12.59,12.59,0,0,1,25.49,54a8.22,8.22,0,0,1-4.94-.88,14.76,14.76,0,0,1-4-3A1.45,1.45,0,0,1,16,49.52V49.19a11.6,11.6,0,0,1,7.66-4.53A8.79,8.79,0,0,1,29,45.94a14.19,14.19,0,0,1,4,3.18V49.6Zm-8.7-3.43a3.17,3.17,0,0,0-3.18,3.22,3.18,3.18,0,1,0,6.37,0A3.16,3.16,0,0,0,24.3,46.17Z"/><path id="_Compound_Path_2" data-name="&lt;Compound Path&gt;" class="cls-2" d="M24.3,46.17a3.16,3.16,0,0,1,3.19,3.21A3.18,3.18,0,1,1,24.3,46.17Zm0,4.27a1,1,0,0,0,1.06-1A1.06,1.06,0,1,0,24.3,50.44Z"/><path id="_Path_3" data-name="&lt;Path&gt;" d="M24.29,50.9a1.5,1.5,0,0,1-1.51-1.51,1.51,1.51,0,1,1,3,0A1.48,1.48,0,0,1,24.29,50.9Z"/></g></g></svg>