<svg id="Layer_5" data-name="Layer 5" xmlns="http://www.w3.org/2000/svg" viewBox="0 0 80 80"><defs><style>.cls-1{fill:#636362;}.cls-2,.cls-4{fill:#fff;}.cls-2{opacity:0.65;}.cls-3{fill:#ff0820;}</style></defs><title>PREP</title><g id="_Group_" data-name="&lt;Group&gt;"><rect id="_Rectangle_" data-name="&lt;Rectangle&gt;" class="cls-1" x="19" y="25" width="45" height="38" rx="3.61" ry="3.61"/><circle id="_Path_" data-name="&lt;Path&gt;" class="cls-2" cx="41.45" cy="44.99" r="10.15"/><path id="_Path_2" data-name="&lt;Path&gt;" class="cls-3" d="M43.19,50.56H39.74V46.63h-4V43.16h3.93V39.22h3.44v3.91h3.94V46.6H43.19v4Z"/><path class="cls-1" d="M33.65,18v7.31h1.87V19.84A0.81,0.81,0,0,1,36.32,19H46.58a0.81,0.81,0,0,1,.81.81v5.44h1.87V18a0.81,0.81,0,0,0-.81-0.81h-14A0.81,0.81,0,0,0,33.65,18Z"/><path class="cls-4" d="M31.79,28.08V25.21H31v2.13a0.32,0.32,0,0,1-.32.32H26.65a0.32,0.32,0,0,1-.32-0.32V25.21H25.59v2.87a0.32,0.32,0,0,0,.32.32h5.56A0.32,0.32,0,0,0,31.79,28.08Z"/><path class="cls-4" d="M57.31,28.08V25.21H56.57v2.13a0.32,0.32,0,0,1-.32.32H52.17a0.32,0.32,0,0,1-.32-0.32V25.21H51.11v2.87a0.32,0.32,0,0,0,.32.32H57A0.32,0.32,0,0,0,57.31,28.08Z"/></g></svg>