<svg id="Layer_3" data-name="Layer 3" xmlns="http://www.w3.org/2000/svg" viewBox="0 0 80 80"><defs><style>.cls-1{fill:#006dd0;}.cls-2{fill:#fff;stroke:#068df2;stroke-miterlimit:10;stroke-width:1.13px;}</style></defs><title>PREP</title><path id="_Path_" data-name="&lt;Path&gt;" class="cls-1" d="M60.23,55.76a6.58,6.58,0,0,0,0,1c0.51,3.12-1,5-3.73,5.89C51.4,64.27,47,65.78,41,67.41V65.89c0-5.6-.09-11.2-0.08-16.81,0-4,1-5.15,4.75-6.34,4.45-1.4,9.24-3,13.65-4.54A6.92,6.92,0,0,0,61,37.75v5.59a20.77,20.77,0,0,1-2,.53,3.81,3.81,0,0,0-2.57,3.51c0,1.13-.12,2.26-0.12,3.39C56.29,53.92,57.07,55,60.23,55.76Z"/><path id="_Path_2" data-name="&lt;Path&gt;" class="cls-1" d="M20.39,55.75c3.47-.44,4.49-1.6,4.49-5.08,0-1,0-1.92,0-2.88,0-2.57-.37-3.92-2.93-4.3-0.24,0,.05-0.08.05-0.12V37.74c0,0.65,2.38,1.29,3.95,1.83,3.31,1.13,6.21,2.28,9.56,3.26,3.12,0.92,4.22,2.18,4.27,5.44,0.1,6.34-.07,12.69-0.07,19.13l-9.41-2.86c-1.91-.58-3.9-1-5.76-1.74C20.66,61.34,19.89,60,20.39,55.75Z"/><path id="_Path_3" data-name="&lt;Path&gt;" d="M40.23,31.6A9.29,9.29,0,0,1,40.29,13,9.29,9.29,0,1,1,40.23,31.6Z"/><path id="_Path_4" data-name="&lt;Path&gt;" d="M51.37,38.54c-3.63,2-8.08,1.6-11.19,4.67-2.91-3.05-7.33-2.56-10.89-4.56a8.58,8.58,0,0,1,6.52-4.25,54.78,54.78,0,0,1,9.25,0C47.75,34.65,49.81,36.28,51.37,38.54Z"/><path id="_Path_5" data-name="&lt;Path&gt;" d="M23.1,49.68c0,0.46,0,.92,0,1.37a2.37,2.37,0,0,1-2.33,2.43,2.3,2.3,0,0,1-2.62-2.11,19.28,19.28,0,0,1,0-3.62,2.35,2.35,0,0,1,2.73-2.12,2.39,2.39,0,0,1,2.21,2.42C23.12,48.59,23.1,49.14,23.1,49.68Z"/><path id="_Path_6" data-name="&lt;Path&gt;" d="M62.78,50a13,13,0,0,1,0,1.54A2.3,2.3,0,0,1,60.3,53.6a2.34,2.34,0,0,1-2.39-2.16,22.52,22.52,0,0,1,0-3.65,2.31,2.31,0,0,1,2.59-2.15,2.5,2.5,0,0,1,2.3,2.53c0,0.54,0,.83,0,1.83h0Z"/><circle id="_Path_7" data-name="&lt;Path&gt;" class="cls-2" cx="39.55" cy="55.8" r="7.8"/><g id="_Group_" data-name="&lt;Group&gt;"><circle id="_Path_8" data-name="&lt;Path&gt;" class="cls-1" cx="39.79" cy="52.29" r="1.5"/><rect class="cls-1" x="38.7" y="54.47" width="2.18" height="6.53"/></g></svg>